<mxfile host="app.diagrams.net" modified="2023-04-07T22:45:18.035Z" agent="Mozilla/5.0 (Windows NT 10.0; Win64; x64) AppleWebKit/537.36 (KHTML, like Gecko) Chrome/111.0.0.0 Safari/537.36" etag="GajLoGLp9TTgXYuh0WY8" version="21.1.5" type="device">
  <diagram name="Page-1" id="dIVlRM0FUi2KP0AZjJBj">
    <mxGraphModel dx="1107" dy="1282" grid="1" gridSize="10" guides="1" tooltips="1" connect="1" arrows="1" fold="1" page="1" pageScale="1" pageWidth="850" pageHeight="1100" math="0" shadow="0">
      <root>
        <mxCell id="0" />
        <mxCell id="1" parent="0" />
        <mxCell id="vrUg6nh2y9T_X38d_DYT-84" style="edgeStyle=orthogonalEdgeStyle;rounded=0;orthogonalLoop=1;jettySize=auto;html=1;entryX=0.5;entryY=0;entryDx=0;entryDy=0;" edge="1" parent="1" source="vrUg6nh2y9T_X38d_DYT-1" target="vrUg6nh2y9T_X38d_DYT-4">
          <mxGeometry relative="1" as="geometry" />
        </mxCell>
        <mxCell id="vrUg6nh2y9T_X38d_DYT-85" style="edgeStyle=orthogonalEdgeStyle;rounded=0;orthogonalLoop=1;jettySize=auto;html=1;entryX=0.5;entryY=0;entryDx=0;entryDy=0;" edge="1" parent="1" source="vrUg6nh2y9T_X38d_DYT-1" target="vrUg6nh2y9T_X38d_DYT-3">
          <mxGeometry relative="1" as="geometry">
            <Array as="points">
              <mxPoint x="70" y="170" />
              <mxPoint x="515" y="170" />
            </Array>
          </mxGeometry>
        </mxCell>
        <mxCell id="vrUg6nh2y9T_X38d_DYT-86" style="edgeStyle=orthogonalEdgeStyle;rounded=0;orthogonalLoop=1;jettySize=auto;html=1;entryX=0;entryY=0.5;entryDx=0;entryDy=0;" edge="1" parent="1" source="vrUg6nh2y9T_X38d_DYT-1" target="vrUg6nh2y9T_X38d_DYT-5">
          <mxGeometry relative="1" as="geometry">
            <Array as="points">
              <mxPoint x="100" y="250" />
            </Array>
          </mxGeometry>
        </mxCell>
        <mxCell id="vrUg6nh2y9T_X38d_DYT-1" value="Democracia 2.0" style="html=1;whiteSpace=wrap;" vertex="1" parent="1">
          <mxGeometry x="40" y="360" width="110" height="50" as="geometry" />
        </mxCell>
        <mxCell id="vrUg6nh2y9T_X38d_DYT-6" style="edgeStyle=orthogonalEdgeStyle;rounded=0;orthogonalLoop=1;jettySize=auto;html=1;startArrow=none;startFill=0;endArrow=none;endFill=0;entryX=0.5;entryY=0;entryDx=0;entryDy=0;" edge="1" parent="1" source="vrUg6nh2y9T_X38d_DYT-3" target="vrUg6nh2y9T_X38d_DYT-8">
          <mxGeometry relative="1" as="geometry">
            <mxPoint x="515" y="330" as="targetPoint" />
            <Array as="points">
              <mxPoint x="515" y="320" />
              <mxPoint x="515" y="320" />
            </Array>
          </mxGeometry>
        </mxCell>
        <mxCell id="vrUg6nh2y9T_X38d_DYT-3" value="Catalogo de&amp;nbsp;&lt;br&gt;Citizens" style="html=1;whiteSpace=wrap;" vertex="1" parent="1">
          <mxGeometry x="460" y="190" width="110" height="50" as="geometry" />
        </mxCell>
        <mxCell id="vrUg6nh2y9T_X38d_DYT-47" style="edgeStyle=orthogonalEdgeStyle;rounded=0;orthogonalLoop=1;jettySize=auto;html=1;entryX=0;entryY=0.25;entryDx=0;entryDy=0;endArrow=none;endFill=0;" edge="1" parent="1" source="vrUg6nh2y9T_X38d_DYT-4" target="vrUg6nh2y9T_X38d_DYT-43">
          <mxGeometry relative="1" as="geometry" />
        </mxCell>
        <mxCell id="vrUg6nh2y9T_X38d_DYT-87" style="edgeStyle=orthogonalEdgeStyle;rounded=0;orthogonalLoop=1;jettySize=auto;html=1;" edge="1" parent="1" source="vrUg6nh2y9T_X38d_DYT-4">
          <mxGeometry relative="1" as="geometry">
            <mxPoint x="910" y="560" as="targetPoint" />
            <Array as="points">
              <mxPoint x="95" y="730" />
              <mxPoint x="910" y="730" />
            </Array>
          </mxGeometry>
        </mxCell>
        <mxCell id="vrUg6nh2y9T_X38d_DYT-4" value="Catalogo de&amp;nbsp;&lt;br&gt;Bills" style="html=1;whiteSpace=wrap;" vertex="1" parent="1">
          <mxGeometry x="40" y="550" width="110" height="50" as="geometry" />
        </mxCell>
        <mxCell id="vrUg6nh2y9T_X38d_DYT-36" style="edgeStyle=orthogonalEdgeStyle;rounded=0;orthogonalLoop=1;jettySize=auto;html=1;exitX=0.5;exitY=1;exitDx=0;exitDy=0;entryX=0.5;entryY=0;entryDx=0;entryDy=0;endArrow=none;endFill=0;" edge="1" parent="1" source="vrUg6nh2y9T_X38d_DYT-5" target="vrUg6nh2y9T_X38d_DYT-31">
          <mxGeometry relative="1" as="geometry">
            <Array as="points">
              <mxPoint x="290" y="360" />
            </Array>
          </mxGeometry>
        </mxCell>
        <mxCell id="vrUg6nh2y9T_X38d_DYT-5" value="Catalogo de Polls" style="whiteSpace=wrap;html=1;" vertex="1" parent="1">
          <mxGeometry x="235" y="220" width="110" height="60" as="geometry" />
        </mxCell>
        <mxCell id="vrUg6nh2y9T_X38d_DYT-55" value="Supports" style="edgeStyle=orthogonalEdgeStyle;rounded=0;orthogonalLoop=1;jettySize=auto;html=1;entryX=1;entryY=0.5;entryDx=0;entryDy=0;endArrow=none;endFill=0;exitX=0;exitY=0.5;exitDx=0;exitDy=0;" edge="1" parent="1" source="vrUg6nh2y9T_X38d_DYT-30" target="vrUg6nh2y9T_X38d_DYT-44">
          <mxGeometry relative="1" as="geometry">
            <mxPoint x="410" y="480" as="sourcePoint" />
            <Array as="points">
              <mxPoint x="410" y="438" />
              <mxPoint x="410" y="569" />
            </Array>
          </mxGeometry>
        </mxCell>
        <mxCell id="vrUg6nh2y9T_X38d_DYT-8" value="Citizen" style="swimlane;fontStyle=0;childLayout=stackLayout;horizontal=1;startSize=26;fillColor=none;horizontalStack=0;resizeParent=1;resizeParentMax=0;resizeLast=0;collapsible=1;marginBottom=0;whiteSpace=wrap;html=1;" vertex="1" parent="1">
          <mxGeometry x="475" y="347" width="140" height="104" as="geometry" />
        </mxCell>
        <mxCell id="vrUg6nh2y9T_X38d_DYT-9" value="+ id: int" style="text;strokeColor=none;fillColor=none;align=left;verticalAlign=top;spacingLeft=4;spacingRight=4;overflow=hidden;rotatable=0;points=[[0,0.5],[1,0.5]];portConstraint=eastwest;whiteSpace=wrap;html=1;" vertex="1" parent="vrUg6nh2y9T_X38d_DYT-8">
          <mxGeometry y="26" width="140" height="26" as="geometry" />
        </mxCell>
        <mxCell id="vrUg6nh2y9T_X38d_DYT-10" value="+ name: String&amp;nbsp;" style="text;strokeColor=none;fillColor=none;align=left;verticalAlign=top;spacingLeft=4;spacingRight=4;overflow=hidden;rotatable=0;points=[[0,0.5],[1,0.5]];portConstraint=eastwest;whiteSpace=wrap;html=1;" vertex="1" parent="vrUg6nh2y9T_X38d_DYT-8">
          <mxGeometry y="52" width="140" height="26" as="geometry" />
        </mxCell>
        <mxCell id="vrUg6nh2y9T_X38d_DYT-30" value="+ name: String&amp;nbsp;" style="text;strokeColor=none;fillColor=none;align=left;verticalAlign=top;spacingLeft=4;spacingRight=4;overflow=hidden;rotatable=0;points=[[0,0.5],[1,0.5]];portConstraint=eastwest;whiteSpace=wrap;html=1;" vertex="1" parent="vrUg6nh2y9T_X38d_DYT-8">
          <mxGeometry y="78" width="140" height="26" as="geometry" />
        </mxCell>
        <mxCell id="vrUg6nh2y9T_X38d_DYT-12" value="Extends" style="endArrow=block;endSize=16;endFill=0;html=1;rounded=0;exitX=0.375;exitY=-0.029;exitDx=0;exitDy=0;entryX=0.499;entryY=0.973;entryDx=0;entryDy=0;entryPerimeter=0;exitPerimeter=0;" edge="1" parent="1" source="vrUg6nh2y9T_X38d_DYT-13" target="vrUg6nh2y9T_X38d_DYT-30">
          <mxGeometry width="160" relative="1" as="geometry">
            <mxPoint x="518" y="490" as="sourcePoint" />
            <mxPoint x="540" y="450" as="targetPoint" />
          </mxGeometry>
        </mxCell>
        <mxCell id="vrUg6nh2y9T_X38d_DYT-51" style="edgeStyle=orthogonalEdgeStyle;rounded=0;orthogonalLoop=1;jettySize=auto;html=1;entryX=1;entryY=0.5;entryDx=0;entryDy=0;endArrow=none;endFill=0;" edge="1" parent="1" source="vrUg6nh2y9T_X38d_DYT-13" target="vrUg6nh2y9T_X38d_DYT-46">
          <mxGeometry relative="1" as="geometry" />
        </mxCell>
        <mxCell id="vrUg6nh2y9T_X38d_DYT-52" value="Proposes" style="edgeLabel;html=1;align=center;verticalAlign=middle;resizable=0;points=[];" vertex="1" connectable="0" parent="vrUg6nh2y9T_X38d_DYT-51">
          <mxGeometry x="-0.002" y="1" relative="1" as="geometry">
            <mxPoint y="-1" as="offset" />
          </mxGeometry>
        </mxCell>
        <mxCell id="vrUg6nh2y9T_X38d_DYT-13" value="Delegado" style="swimlane;fontStyle=0;childLayout=stackLayout;horizontal=1;startSize=26;fillColor=none;horizontalStack=0;resizeParent=1;resizeParentMax=0;resizeLast=0;collapsible=1;marginBottom=0;whiteSpace=wrap;html=1;" vertex="1" parent="1">
          <mxGeometry x="490" y="600" width="140" height="52" as="geometry" />
        </mxCell>
        <mxCell id="vrUg6nh2y9T_X38d_DYT-14" value="+ fi: type" style="text;strokeColor=none;fillColor=none;align=left;verticalAlign=top;spacingLeft=4;spacingRight=4;overflow=hidden;rotatable=0;points=[[0,0.5],[1,0.5]];portConstraint=eastwest;whiteSpace=wrap;html=1;" vertex="1" parent="vrUg6nh2y9T_X38d_DYT-13">
          <mxGeometry y="26" width="140" height="26" as="geometry" />
        </mxCell>
        <mxCell id="vrUg6nh2y9T_X38d_DYT-24" value="&lt;font style=&quot;font-size: 22px;&quot;&gt;&lt;b&gt;*&lt;/b&gt;&lt;/font&gt;" style="text;html=1;align=center;verticalAlign=middle;resizable=0;points=[];autosize=1;strokeColor=none;fillColor=none;" vertex="1" parent="1">
          <mxGeometry x="445" y="790" width="30" height="40" as="geometry" />
        </mxCell>
        <mxCell id="vrUg6nh2y9T_X38d_DYT-27" value="&lt;font style=&quot;font-size: 22px;&quot;&gt;&lt;b&gt;*&lt;/b&gt;&lt;/font&gt;" style="text;html=1;align=center;verticalAlign=middle;resizable=0;points=[];autosize=1;strokeColor=none;fillColor=none;" vertex="1" parent="1">
          <mxGeometry x="317" y="880" width="30" height="40" as="geometry" />
        </mxCell>
        <mxCell id="vrUg6nh2y9T_X38d_DYT-54" value="Creates" style="edgeStyle=orthogonalEdgeStyle;rounded=0;orthogonalLoop=1;jettySize=auto;html=1;entryX=0.5;entryY=0;entryDx=0;entryDy=0;endArrow=none;endFill=0;" edge="1" parent="1" source="vrUg6nh2y9T_X38d_DYT-31" target="vrUg6nh2y9T_X38d_DYT-43">
          <mxGeometry relative="1" as="geometry">
            <Array as="points">
              <mxPoint x="280" y="530" />
            </Array>
          </mxGeometry>
        </mxCell>
        <mxCell id="vrUg6nh2y9T_X38d_DYT-56" style="edgeStyle=orthogonalEdgeStyle;rounded=0;orthogonalLoop=1;jettySize=auto;html=1;endArrow=none;endFill=0;exitX=1;exitY=0.25;exitDx=0;exitDy=0;" edge="1" parent="1" source="vrUg6nh2y9T_X38d_DYT-31">
          <mxGeometry relative="1" as="geometry">
            <mxPoint x="360" y="386" as="sourcePoint" />
            <mxPoint x="470" y="380" as="targetPoint" />
          </mxGeometry>
        </mxCell>
        <mxCell id="vrUg6nh2y9T_X38d_DYT-57" value="Votes" style="edgeLabel;html=1;align=center;verticalAlign=middle;resizable=0;points=[];" vertex="1" connectable="0" parent="vrUg6nh2y9T_X38d_DYT-56">
          <mxGeometry x="-0.0544" relative="1" as="geometry">
            <mxPoint as="offset" />
          </mxGeometry>
        </mxCell>
        <mxCell id="vrUg6nh2y9T_X38d_DYT-31" value="Polls" style="swimlane;fontStyle=0;childLayout=stackLayout;horizontal=1;startSize=26;fillColor=none;horizontalStack=0;resizeParent=1;resizeParentMax=0;resizeLast=0;collapsible=1;marginBottom=0;whiteSpace=wrap;html=1;" vertex="1" parent="1">
          <mxGeometry x="210" y="360" width="140" height="104" as="geometry" />
        </mxCell>
        <mxCell id="vrUg6nh2y9T_X38d_DYT-32" value="+ prazo: Date" style="text;strokeColor=none;fillColor=none;align=left;verticalAlign=top;spacingLeft=4;spacingRight=4;overflow=hidden;rotatable=0;points=[[0,0.5],[1,0.5]];portConstraint=eastwest;whiteSpace=wrap;html=1;" vertex="1" parent="vrUg6nh2y9T_X38d_DYT-31">
          <mxGeometry y="26" width="140" height="26" as="geometry" />
        </mxCell>
        <mxCell id="vrUg6nh2y9T_X38d_DYT-83" value="+ votes: List" style="text;strokeColor=none;fillColor=none;align=left;verticalAlign=top;spacingLeft=4;spacingRight=4;overflow=hidden;rotatable=0;points=[[0,0.5],[1,0.5]];portConstraint=eastwest;whiteSpace=wrap;html=1;" vertex="1" parent="vrUg6nh2y9T_X38d_DYT-31">
          <mxGeometry y="52" width="140" height="26" as="geometry" />
        </mxCell>
        <mxCell id="vrUg6nh2y9T_X38d_DYT-33" value="+ ongoing: boolean" style="text;strokeColor=none;fillColor=none;align=left;verticalAlign=top;spacingLeft=4;spacingRight=4;overflow=hidden;rotatable=0;points=[[0,0.5],[1,0.5]];portConstraint=eastwest;whiteSpace=wrap;html=1;" vertex="1" parent="vrUg6nh2y9T_X38d_DYT-31">
          <mxGeometry y="78" width="140" height="26" as="geometry" />
        </mxCell>
        <mxCell id="vrUg6nh2y9T_X38d_DYT-37" value="&lt;font style=&quot;font-size: 22px;&quot;&gt;&lt;b&gt;*&lt;/b&gt;&lt;/font&gt;" style="text;html=1;align=center;verticalAlign=middle;resizable=0;points=[];autosize=1;strokeColor=none;fillColor=none;" vertex="1" parent="1">
          <mxGeometry x="287" y="334" width="30" height="40" as="geometry" />
        </mxCell>
        <mxCell id="vrUg6nh2y9T_X38d_DYT-38" value="&lt;font size=&quot;1&quot; style=&quot;&quot;&gt;&lt;b style=&quot;font-size: 16px;&quot;&gt;1&lt;/b&gt;&lt;/font&gt;" style="text;html=1;align=center;verticalAlign=middle;resizable=0;points=[];autosize=1;strokeColor=none;fillColor=none;" vertex="1" parent="1">
          <mxGeometry x="284" y="277" width="30" height="30" as="geometry" />
        </mxCell>
        <mxCell id="vrUg6nh2y9T_X38d_DYT-39" value="&lt;font size=&quot;1&quot; style=&quot;&quot;&gt;&lt;b style=&quot;font-size: 16px;&quot;&gt;1&lt;/b&gt;&lt;/font&gt;" style="text;html=1;align=center;verticalAlign=middle;resizable=0;points=[];autosize=1;strokeColor=none;fillColor=none;" vertex="1" parent="1">
          <mxGeometry x="512" y="240" width="30" height="30" as="geometry" />
        </mxCell>
        <mxCell id="vrUg6nh2y9T_X38d_DYT-40" value="&lt;font style=&quot;font-size: 22px;&quot;&gt;&lt;b&gt;*&lt;/b&gt;&lt;/font&gt;" style="text;html=1;align=center;verticalAlign=middle;resizable=0;points=[];autosize=1;strokeColor=none;fillColor=none;" vertex="1" parent="1">
          <mxGeometry x="520" y="310" width="30" height="40" as="geometry" />
        </mxCell>
        <mxCell id="vrUg6nh2y9T_X38d_DYT-78" style="edgeStyle=orthogonalEdgeStyle;rounded=0;orthogonalLoop=1;jettySize=auto;html=1;exitX=1;exitY=0.5;exitDx=0;exitDy=0;entryX=0.5;entryY=1;entryDx=0;entryDy=0;endArrow=diamondThin;endFill=1;" edge="1" parent="1" source="vrUg6nh2y9T_X38d_DYT-49" target="vrUg6nh2y9T_X38d_DYT-63">
          <mxGeometry relative="1" as="geometry">
            <mxPoint x="380" y="690" as="targetPoint" />
            <Array as="points">
              <mxPoint x="860" y="673" />
            </Array>
          </mxGeometry>
        </mxCell>
        <mxCell id="vrUg6nh2y9T_X38d_DYT-43" value="Bill" style="swimlane;fontStyle=0;childLayout=stackLayout;horizontal=1;startSize=26;fillColor=none;horizontalStack=0;resizeParent=1;resizeParentMax=0;resizeLast=0;collapsible=1;marginBottom=0;whiteSpace=wrap;html=1;" vertex="1" parent="1">
          <mxGeometry x="210" y="530" width="140" height="182" as="geometry" />
        </mxCell>
        <mxCell id="vrUg6nh2y9T_X38d_DYT-44" value="+ title: String" style="text;strokeColor=none;fillColor=none;align=left;verticalAlign=top;spacingLeft=4;spacingRight=4;overflow=hidden;rotatable=0;points=[[0,0.5],[1,0.5]];portConstraint=eastwest;whiteSpace=wrap;html=1;" vertex="1" parent="vrUg6nh2y9T_X38d_DYT-43">
          <mxGeometry y="26" width="140" height="26" as="geometry" />
        </mxCell>
        <mxCell id="vrUg6nh2y9T_X38d_DYT-45" value="+ desc: String&lt;span style=&quot;white-space: pre;&quot;&gt;	&lt;/span&gt;" style="text;strokeColor=none;fillColor=none;align=left;verticalAlign=top;spacingLeft=4;spacingRight=4;overflow=hidden;rotatable=0;points=[[0,0.5],[1,0.5]];portConstraint=eastwest;whiteSpace=wrap;html=1;" vertex="1" parent="vrUg6nh2y9T_X38d_DYT-43">
          <mxGeometry y="52" width="140" height="26" as="geometry" />
        </mxCell>
        <mxCell id="vrUg6nh2y9T_X38d_DYT-46" value="+ pdf: File" style="text;strokeColor=none;fillColor=none;align=left;verticalAlign=top;spacingLeft=4;spacingRight=4;overflow=hidden;rotatable=0;points=[[0,0.5],[1,0.5]];portConstraint=eastwest;whiteSpace=wrap;html=1;" vertex="1" parent="vrUg6nh2y9T_X38d_DYT-43">
          <mxGeometry y="78" width="140" height="26" as="geometry" />
        </mxCell>
        <mxCell id="vrUg6nh2y9T_X38d_DYT-48" value="+ valid_date: Date" style="text;strokeColor=none;fillColor=none;align=left;verticalAlign=top;spacingLeft=4;spacingRight=4;overflow=hidden;rotatable=0;points=[[0,0.5],[1,0.5]];portConstraint=eastwest;whiteSpace=wrap;html=1;" vertex="1" parent="vrUg6nh2y9T_X38d_DYT-43">
          <mxGeometry y="104" width="140" height="26" as="geometry" />
        </mxCell>
        <mxCell id="vrUg6nh2y9T_X38d_DYT-49" value="+ approved: Boolean" style="text;strokeColor=none;fillColor=none;align=left;verticalAlign=top;spacingLeft=4;spacingRight=4;overflow=hidden;rotatable=0;points=[[0,0.5],[1,0.5]];portConstraint=eastwest;whiteSpace=wrap;html=1;" vertex="1" parent="vrUg6nh2y9T_X38d_DYT-43">
          <mxGeometry y="130" width="140" height="26" as="geometry" />
        </mxCell>
        <mxCell id="vrUg6nh2y9T_X38d_DYT-50" value="+ apoios : int" style="text;strokeColor=none;fillColor=none;align=left;verticalAlign=top;spacingLeft=4;spacingRight=4;overflow=hidden;rotatable=0;points=[[0,0.5],[1,0.5]];portConstraint=eastwest;whiteSpace=wrap;html=1;" vertex="1" parent="vrUg6nh2y9T_X38d_DYT-43">
          <mxGeometry y="156" width="140" height="26" as="geometry" />
        </mxCell>
        <mxCell id="vrUg6nh2y9T_X38d_DYT-69" style="edgeStyle=orthogonalEdgeStyle;rounded=0;orthogonalLoop=1;jettySize=auto;html=1;endArrow=none;endFill=0;entryX=1;entryY=0.5;entryDx=0;entryDy=0;" edge="1" parent="1" source="vrUg6nh2y9T_X38d_DYT-63" target="vrUg6nh2y9T_X38d_DYT-79">
          <mxGeometry relative="1" as="geometry">
            <mxPoint x="780" y="520" as="targetPoint" />
            <Array as="points">
              <mxPoint x="800" y="520" />
            </Array>
          </mxGeometry>
        </mxCell>
        <mxCell id="vrUg6nh2y9T_X38d_DYT-63" value="Themes" style="swimlane;fontStyle=0;childLayout=stackLayout;horizontal=1;startSize=26;fillColor=none;horizontalStack=0;resizeParent=1;resizeParentMax=0;resizeLast=0;collapsible=1;marginBottom=0;whiteSpace=wrap;html=1;" vertex="1" parent="1">
          <mxGeometry x="790" y="481" width="140" height="78" as="geometry" />
        </mxCell>
        <mxCell id="vrUg6nh2y9T_X38d_DYT-64" value="+ name: String" style="text;strokeColor=none;fillColor=none;align=left;verticalAlign=top;spacingLeft=4;spacingRight=4;overflow=hidden;rotatable=0;points=[[0,0.5],[1,0.5]];portConstraint=eastwest;whiteSpace=wrap;html=1;" vertex="1" parent="vrUg6nh2y9T_X38d_DYT-63">
          <mxGeometry y="26" width="140" height="26" as="geometry" />
        </mxCell>
        <mxCell id="vrUg6nh2y9T_X38d_DYT-65" value="+ field: type" style="text;strokeColor=none;fillColor=none;align=left;verticalAlign=top;spacingLeft=4;spacingRight=4;overflow=hidden;rotatable=0;points=[[0,0.5],[1,0.5]];portConstraint=eastwest;whiteSpace=wrap;html=1;" vertex="1" parent="vrUg6nh2y9T_X38d_DYT-63">
          <mxGeometry y="52" width="140" height="26" as="geometry" />
        </mxCell>
        <mxCell id="vrUg6nh2y9T_X38d_DYT-80" style="edgeStyle=orthogonalEdgeStyle;rounded=0;orthogonalLoop=1;jettySize=auto;html=1;entryX=1;entryY=0.5;entryDx=0;entryDy=0;" edge="1" parent="1" source="vrUg6nh2y9T_X38d_DYT-79" target="vrUg6nh2y9T_X38d_DYT-14">
          <mxGeometry relative="1" as="geometry" />
        </mxCell>
        <mxCell id="vrUg6nh2y9T_X38d_DYT-81" style="edgeStyle=orthogonalEdgeStyle;rounded=0;orthogonalLoop=1;jettySize=auto;html=1;entryX=1;entryY=0.5;entryDx=0;entryDy=0;" edge="1" parent="1" source="vrUg6nh2y9T_X38d_DYT-79" target="vrUg6nh2y9T_X38d_DYT-10">
          <mxGeometry relative="1" as="geometry" />
        </mxCell>
        <mxCell id="vrUg6nh2y9T_X38d_DYT-79" value="Chooses" style="shape=rhombus;perimeter=rhombusPerimeter;whiteSpace=wrap;html=1;align=center;" vertex="1" parent="1">
          <mxGeometry x="630" y="490" width="120" height="60" as="geometry" />
        </mxCell>
        <mxCell id="vrUg6nh2y9T_X38d_DYT-89" value="Se calhar uma entidade Del/Theme nova?" style="text;html=1;align=center;verticalAlign=middle;resizable=0;points=[];autosize=1;strokeColor=none;fillColor=none;" vertex="1" parent="1">
          <mxGeometry x="690" y="434" width="250" height="30" as="geometry" />
        </mxCell>
      </root>
    </mxGraphModel>
  </diagram>
</mxfile>
